<?xml version="1.0" standalone="no"?><!DOCTYPE svg PUBLIC "-//W3C//DTD SVG 1.1//EN" "http://www.w3.org/Graphics/SVG/1.1/DTD/svg11.dtd"><svg t="1622539059260" class="icon" viewBox="0 0 1024 1024" version="1.1" xmlns="http://www.w3.org/2000/svg" p-id="7403" xmlns:xlink="http://www.w3.org/1999/xlink" width="200" height="200"><defs><style type="text/css"></style></defs><path d="M883.84 441.55v-204.8l-100.23 37.77q2.91 21.79 5.81 46.48 2.91 24.69 2.91 47.93-2.91 81.34-35.59 148.88-32.68 67.54-82.06 114.02-17.43 18.88-18.15 47.93-0.73 29.05 28.33 45.03 42.12 17.43 149.6 61.73 107.48 44.3 136.53 73.35 14.53 34.86-10.89 95.87-25.42 61-29.78 68.26H93.7q-4.36-7.26-29.78-68.26-25.42-61-10.89-95.87 26.14-27.6 124.18-68.27 98.05-40.67 167.75-66.81 53.75-27.6 34.14-60.28t-26.87-37.04q-50.84-43.57-83.52-110.38-32.68-66.82-34.13-148.16 0-52.29 4.35-95.86L0.73 185.92 512 0l511.27 185.92-92.96 34.86v220.77l42.13 43.58-65.36 65.36-66.82-65.36 43.58-43.58z" p-id="7404"></path></svg>