<?xml version="1.0" standalone="no"?><!DOCTYPE svg PUBLIC "-//W3C//DTD SVG 1.1//EN" "http://www.w3.org/Graphics/SVG/1.1/DTD/svg11.dtd"><svg t="1622536608287" class="icon" viewBox="0 0 1024 1024" version="1.1" xmlns="http://www.w3.org/2000/svg" p-id="5331" xmlns:xlink="http://www.w3.org/1999/xlink" width="200" height="200"><defs><style type="text/css"></style></defs><path d="M116.448664 81.172741l437.44191 0 0 155.023726 0 36.836977 36.836977 0 207.209272 0 0 92.093465 36.836977 0 0-92.093465 0-36.836977-1.427512 0L591.813279 45.870724l-1.086751 1.37737 0-1.37737-36.836977 0L91.891362 45.870724c-6.78145 0-12.279674 5.498224-12.279674 12.279674l0 873.346815c0 6.78145 5.498224 12.279674 12.279674 12.279674l306.975487 0 0-36.836977L116.448664 906.939911 116.448664 81.172741zM590.727551 91.915409l183.103248 144.281057L590.727551 236.196467 590.727551 91.915409z" p-id="5332"></path><path d="M236.685096 273.033443l227.16272 0 0 36.836977-227.16272 0 0-36.836977Z" p-id="5333"></path><path d="M236.686119 369.226273l290.833855 0 0 36.836977-290.833855 0 0-36.836977Z" p-id="5334"></path><path d="M236.686119 465.924615l252.739235 0 0 36.836977-252.739235 0 0-36.836977Z" p-id="5335"></path><path d="M236.686119 690.521906l179.065282 0L415.751401 583.079872 236.686119 583.079872 236.686119 690.521906zM271.47239 619.916848 382.103046 619.916848l0 38.371936L271.47239 658.288784 271.47239 619.916848z" p-id="5336"></path><path d="M639.655913 699.088002c19.323091 14.504342 43.234687 21.85782 71.071685 21.85782 50.244334 0 87.064938-27.730575 106.482173-80.193437 12.422937-33.564443 15.030321-69.667709 15.030321-94.043886l0-102.21601c0-9.890254-8.017604-17.907858-17.907858-17.907858L658.00277 426.584632c-0.506537 0-1.013073 0.021489-1.518586 0.064468-1.930979 0.164752-19.386536 1.885953-37.299511 11.605316-25.565259 13.870916-39.645952 37.592177-39.645952 66.794265 0 42.175565 2.284019 96.15292 20.09671 139.560546C609.250416 668.041916 622.715079 686.370353 639.655913 699.088002zM635.447055 470.187709c10.247388-5.788843 21.039175-7.462972 23.537066-7.78736l137.440256 0 0 84.308151c0 30.321586-4.546549 59.304687-12.803607 81.612763-14.147208 38.226626-37.991266 56.809867-72.892147 56.809867-66.851571 0-95.374184-53.856605-95.374184-180.081425C615.353414 489.22939 621.92611 477.825666 635.447055 470.187709z" p-id="5337"></path><path d="M906.878001 764.532527c-18.201547-18.199501-57.795311-37.026288-92.545766-37.026288-24.00881 0-45.185108 27.358091-69.706595 59.035558-8.464789 10.936073-17.21815 22.24463-25.00551 30.703279-7.457856 8.101515-11.670807 11.021008-13.553691 12.048407-1.514493-0.973164-4.635577-3.446495-9.82067-9.555633-5.961782-7.023974-12.464893-16.228613-19.349697-25.974581-21.940708-31.057343-46.809095-66.258053-79.450517-66.258053-49.122791 0-90.092901 38.523385-91.812055 40.162722-0.103354 0.098237-0.205685 0.197498-0.305969 0.298805-51.381228 51.382251-51.259454 106.260116-51.201126 132.632763l0.00307 2.432399c0 27.960819 20.590967 40.696888 39.721677 40.696888 0.536212 0 1.000793-0.011256 1.379417-0.025583l215.494982 0c0 0 188.642404 0.024559 213.552747 0.024559 30.082132 0 43.568285-23.967878 45.293579-40.077787 0.067538-0.633427 0.102331-1.269923 0.102331-1.906419C969.674209 836.997955 930.331155 787.985682 906.878001 764.532527zM924.279323 907.913075c-24.911366 0-213.549677-0.024559-213.551724-0.024559L494.799758 907.888516c-0.3776 0-0.524956-0.011256-0.668219-0.011256-0.116657 0-0.230244 0.007163-0.459464 0.033769-1.338485-0.035816-2.741437-0.467651-3.055592-0.744967-0.173962-0.228197-0.670266-1.476631-0.670266-4.133134l-0.004093-2.511193c-0.054235-24.77936-0.143263-66.225307 40.497343-107.014292 2.226714-2.047636 33.472346-30.185486 67.00609-30.185486 14.09195 0 35.81981 30.756491 50.198286 51.108005 20.172435 28.55229 36.105313 51.105958 58.244542 51.105958 22.88215 0 42.377156-25.185612 67.059302-57.07081 8.890484-11.486612 18.083867-23.363104 26.371624-32.247448 9.884115-10.594289 14.511505-12.576433 15.456017-12.894681 25.124214 0.179079 55.760978 15.518438 66.777893 26.53433 19.357883 19.358907 51.714825 59.31492 52.297087 110.482277C932.28567 907.912052 926.295236 907.913075 924.279323 907.913075z" p-id="5338"></path></svg>